<?xml version="1.0" encoding="UTF-8" standalone="no"?>
<!-- Created with Inkscape (http://www.inkscape.org/) -->

<svg
   version="1.1"
   id="svg1"
   width="790"
   height="801"
   viewBox="0 0 790 801"
   xmlns="http://www.w3.org/2000/svg"
   xmlns:svg="http://www.w3.org/2000/svg">
  <defs
     id="defs1" />
  <g
     id="g1">
    <path
       style="fill:#cba6f7;fill-opacity:1"
       d="M -4.0011191,400.00725 V -5.6273331 H 396.06297 796.12706 V 400.00725 805.64183 H 396.06297 -4.0011191 Z m 799.1153591,0 V -4.6145131 H 396.06297 -2.9882991 V 400.00725 804.62901 H 396.06297 795.11424 Z m -396.35041,378.62604 -0.67521,-0.67522 0.0108,-13.25106 0.0108,-13.25107 1.46149,-13.7699 1.4615,-13.7699 2.11407,-8.00574 2.11407,-8.00574 2.05566,-6.07692 2.05566,-6.07692 4.50158,-9.5368 4.50158,-9.5368 4.18263,-6.66833 4.18263,-6.66833 6.30685,-8.10256 6.30684,-8.10256 8.99188,-8.62797 8.99187,-8.62796 6.07693,-4.65218 6.07692,-4.65218 7.38567,-4.77413 7.38566,-4.77412 11.85792,-5.89234 11.85793,-5.89235 12.15384,-4.06032 12.15385,-4.06033 7.08974,-1.55913 7.08974,-1.55914 7.08975,-1.32495 7.08974,-1.32495 h 24.30769 24.30769 l 7.08975,1.32495 7.08974,1.32495 7.08974,1.5525 7.08975,1.55249 12.15384,4.0494 12.15385,4.0494 10.63217,5.11738 10.63217,5.11738 10.13065,6.56099 10.13065,6.56099 8.34518,7.06909 8.34517,7.06909 7.64823,8.13011 7.64823,8.13012 6.63447,9.24045 6.63446,9.24045 5.92648,12.15384 5.92648,12.15385 2.51106,7.59615 2.51106,7.59615 1.51913,7.08975 1.51913,7.08974 1.09174,5.39457 1.09174,5.39458 v 21.69837 21.69837 H 585.1228 399.43904 Z m -109.55342,-36.33316 -10.1282,-1.35094 -8.10256,-1.67029 -8.10257,-1.6703 -7.08974,-2.0117 -7.08974,-2.01171 -7.22622,-2.38095 -7.22621,-2.38094 -7.96609,-3.29677 -7.9661,-3.29676 -9.62179,-5.03561 -9.6218,-5.03562 -6.58333,-4.08396 -6.58333,-4.08396 -11.57354,-8.66216 -11.57354,-8.66216 -11.30391,-11.15646 -11.3039,-11.15646 -3.82351,-4.55769 -3.82351,-4.55769 -8.35063,-11.64744 -8.35063,-11.64743 -4.86594,-8.60897 -4.86594,-8.60898 -4.02166,-8.60897 -4.021659,-8.60898 -2.36903,-6.278 -2.36904,-6.278 -2.04684,-6.38225 -2.04684,-6.38226 -0.91533,-3.03846 -0.91534,-3.03846 -1.70155,-8.10256 -1.70156,-8.10257 -0.98163,-4.43135 -0.98163,-4.43136 -1.39655,-17.31102 -1.39654,-17.31102 0.49002,-0.79287 0.49003,-0.79288 h 26.141039 26.14104 l 0.62779,3.79807 0.62778,3.79808 0.0112,4.81756 0.0111,4.81757 1.48223,9.86833 1.48222,9.86833 2.58932,9.96565 2.58932,9.96565 3.5781,9.27794 3.57809,9.27794 5.0303,9.9499 5.0303,9.94991 5.07042,7.51404 5.07043,7.51405 7.39678,8.86938 7.39678,8.86938 7.51632,7.0035 7.51631,7.00351 9.83919,7.34875 9.83918,7.34875 7.88517,4.40675 7.88518,4.40675 8.10256,3.65213 8.10257,3.65212 7.59615,2.58644 7.59615,2.58643 8.04011,2.09538 8.04011,2.09538 h 1.94469 1.94469 l -0.56862,-2.27884 -0.56861,-2.27885 -4.60529,-23.09533 -4.60528,-23.09534 v -1.41966 -1.41967 l 3.79808,-0.65261 3.79807,-0.6526 19.82513,-3.95098 19.82512,-3.95098 h 2.50144 2.50143 l 8.8501,44.31089 8.8501,44.31089 -0.0324,5.38003 -0.0324,5.38003 -2.58529,5.46485 -2.58529,5.46485 -4.07443,3.22701 -4.07444,3.22702 -3.72169,1.32916 -3.72168,1.32917 -12.66025,-0.0599 -12.66026,-0.0599 z m 272.28724,-178.20423 -9.27687,-2.36038 -8.66046,-4.05843 -8.66046,-4.05843 -5.86396,-4.17149 -5.86396,-4.17149 -7.41592,-7.3073 -7.41592,-7.30729 -4.54384,-6.89361 -4.54384,-6.89361 -2.83683,-6.27306 -2.83682,-6.27306 -0.75734,-2.02564 -0.75733,-2.02564 -1.90389,-7.59615 -1.90388,-7.59615 -0.64507,-9.11539 -0.64508,-9.11538 1.25304,-9.59129 1.25303,-9.59129 2.48386,-7.62666 2.48385,-7.62666 3.59019,-7.08974 3.59018,-7.08974 4.86455,-6.58333 4.86454,-6.58334 5.91126,-5.66919 5.91126,-5.66919 7.59616,-4.99956 7.59615,-4.99957 4.7047,-2.26271 4.70469,-2.26272 5.77732,-1.98769 5.77732,-1.98769 8.11384,-1.53917 8.11385,-1.53917 h 9.55261 9.5526 l 7.80666,1.56864 7.80666,1.56865 5.06411,1.6181 5.0641,1.61811 5.57051,2.51681 5.57051,2.51681 7.59616,5.03487 7.59615,5.03486 5.40016,5.21349 5.40016,5.2135 4.66518,6.07692 4.66518,6.07693 4.29221,8.10256 4.29222,8.10256 2.0875,6.58334 2.0875,6.58333 1.53234,8.10256 1.53233,8.10257 -0.0185,7.59615 -0.0185,7.59615 -1.48415,8.3913 -1.48416,8.3913 -2.67605,7.75322 -2.67605,7.75321 -2.55762,4.61831 -2.55761,4.6183 -3.53752,5.57051 -3.53752,5.57052 -7.19715,7.43169 -7.19715,7.4317 -6.38942,4.56243 -6.38943,4.56243 -8.61029,4.03492 -8.61029,4.03492 -9.81439,2.44295 -9.81438,2.44295 -13.67308,-0.068 -13.67307,-0.068 z M 9.8407609,425.15896 l -0.67521,-0.67522 v -20.59356 -20.59357 l 1.6076101,-9.36903 1.60761,-9.36904 1.32187,-5.06411 1.32186,-5.0641 2.10342,-6.20552 2.10341,-6.20553 3.61308,-7.92839 3.61309,-7.9284 5.99543,-9.70081 5.99544,-9.70082 8.06899,-9.66712 8.069,-9.66712 5.90177,-5.37291 5.90178,-5.3729 9.36619,-7.00343 9.3662,-7.00342 7.40971,-4.38074 7.40971,-4.38074 7.531789,-3.58771 7.53178,-3.5877 4.05129,-1.6851 4.05128,-1.68509 8.60897,-2.8466 8.60898,-2.8466 7.59615,-1.68763 7.59615,-1.68764 4.05128,-0.9369 4.05129,-0.93691 15.87493,-1.22964 15.87494,-1.22963 15.31042,1.20584 15.31042,1.20585 4.26336,0.95953 4.26336,0.95953 7.59615,1.67659 7.59616,1.67659 10.63461,3.51101 10.63462,3.51101 11.37498,5.49883 11.37498,5.49883 7.3622,4.71508 7.36219,4.71507 8.10257,6.13386 8.10256,6.13386 8.68742,8.65356 8.68742,8.65356 8.17528,11.01457 8.17528,11.01458 6.10247,12.28029 6.10247,12.2803 2.62342,8.00884 2.62341,8.00885 1.55512,6.67705 1.55512,6.67705 1.45763,13.67307 1.45763,13.67308 0.0108,13.31151 0.0109,13.31151 -1.60207,0.61477 -1.60207,0.61477 H 194.59767 10.515981 Z M 647.68762,292.04278 l -0.6872,-1.11191 -0.89358,-11.29514 -0.89359,-11.29514 -0.8884,-5.57051 -0.8884,-5.57051 -1.57549,-7.08974 -1.57548,-7.08975 -3.20753,-9.62179 -3.20754,-9.62179 -5.29338,-11.14103 -5.29338,-11.14102 -4.86818,-7.59616 -4.86817,-7.59615 -6.38823,-8.20973 -6.38823,-8.20972 -7.42021,-7.48899 -7.42021,-7.48899 -7.57796,-6.18803 -7.57795,-6.18802 -8.89104,-5.79524 -8.89103,-5.79524 -8.83332,-4.34196 -8.83333,-4.34196 -9.62179,-3.65146 -9.6218,-3.65146 -10.10303,-2.53311 -10.10302,-2.53311 -0.69428,0.73415 -0.69428,0.73416 1.31235,6.58333 1.31234,6.58333 2.18012,11.14103 2.18011,11.14102 0.90607,3.54487 0.90607,3.54488 0.67506,4.7109 0.67506,4.71091 -1.87244,0.56727 -1.87244,0.56727 -15.69871,3.17377 -15.69872,3.17377 -7.92126,1.43839 -7.92126,1.43839 -0.79623,-0.4921 -0.79624,-0.4921 -1.22519,-6.35978 -1.22519,-6.35977 -0.92477,-4.05128 -0.92477,-4.05129 -1.1394,-6.07692 -1.1394,-6.07692 -0.80813,-4.05128 -0.80813,-4.05128 -1.61082,-8.10257 -1.61083,-8.10256 -2.63615,-12.66026 -2.63616,-12.660252 -0.50518,-8.16258 -0.50519,-8.16258 2.24288,-4.771528 2.24288,-4.771527 4.49263,-3.95457 4.49263,-3.954571 4.68193,-1.595295 4.68194,-1.595295 7.16252,0.02013 7.16253,0.02013 13.16667,1.453155 13.16666,1.453154 8.10257,1.513271 8.10256,1.513271 6.07692,1.68 6.07693,1.680001 3.03846,0.806928 3.03846,0.806929 4.55769,1.502197 4.55769,1.502198 6.67163,2.575335 6.67164,2.575335 10.0399,4.807116 10.03991,4.807116 5.0641,3.005385 5.0641,3.005386 9.6218,6.35961 9.62179,6.359601 8.10257,6.71537 8.10256,6.71537 8.46635,8.30188 8.46635,8.3019 8.0234,9.57267 8.02339,9.57268 6.56337,9.85894 6.56336,9.85894 5.38766,10.05084 5.38766,10.05083 4.15418,10.01754 4.15417,10.01755 2.47162,7.08974 2.47162,7.08975 2.57025,10.63461 2.57026,10.63461 1.08412,5.57052 1.08411,5.57051 0.97087,11.14102 0.97088,11.14103 0.52124,6.74604 0.52125,6.74605 -1.55551,0.5969 -1.55551,0.59691 h -24.67149 -24.67149 z m -469.88746,-80.54227 -7.08974,-1.40495 -6.58333,-2.16409 -6.58334,-2.16409 -6.58333,-3.29238 -6.58333,-3.29238 -6.58334,-4.81501 -6.58333,-4.81501 -5.1701,-5.1701 -5.17011,-5.1701 -4.81501,-6.58334 -4.81501,-6.58333 -3.31397,-6.58333 -3.31397,-6.58333 -1.72377,-5.06411 -1.72378,-5.0641 -1.941879,-9.04393 -1.94189,-9.04393 1.7e-4,-8.68043 1.8e-4,-8.68042 1.53233,-8.102571 1.532339,-8.10256 2.07249,-6.474799 2.07248,-6.474799 3.37464,-6.691867 3.37463,-6.691867 4.68264,-6.353122 4.68264,-6.353121 6.65666,-6.526891 6.65666,-6.526891 6.74838,-4.445735 6.74838,-4.445735 6.04209,-2.763613 6.04209,-2.763612 4.1015,-1.392496 4.1015,-1.392497 7.07436,-1.685784 7.07435,-1.685784 h 13.16667 13.16667 l 7.07435,1.685784 7.07436,1.685784 4.07859,1.38472 4.0786,1.384719 5.65382,2.500387 5.65382,2.500387 7.2657,4.786667 7.2657,4.786666 7.37381,7.302368 7.3738,7.302368 4.69146,7.056957 4.69145,7.056957 2.99114,6.553322 2.99115,6.553322 1.0924,3.544871 1.0924,3.544872 1.01597,3.341872 1.01597,3.34187 1.22064,10.500841 1.22063,10.50084 -1.18772,9.66466 -1.18771,9.66466 -1.40973,5.35801 -1.40972,5.35801 -2.01409,5.26077 -2.01409,5.26076 -3.71604,6.6449 -3.71604,6.6449 -6.09426,7.57561 -6.09426,7.5756 -8.28605,6.67233 -8.28605,6.67233 -10.12821,4.88833 -10.1282,4.88832 -6.58334,1.54475 -6.58333,1.54475 -5.39458,1.08961 -5.39457,1.0896 -9.29132,-0.11821 -9.29132,-0.11821 z"
       id="path1" />
  </g>
</svg>
